# xmcd CD database file
#
# Track frame offsets:
#	150
#	11292
#	23237
#	35957
#	47655
#	59022
#	70605
#	85005
#	99415
#	108757
#	120352
#	134130
#	145720
#	157722
#
# Disc length: 2266 seconds
#
# Revision: 0
# Processed by: cddbd v1.5.2PL0 Copyright (c) Steve Scherf et al.
# Submitted via: CDex 1.40Beta9
#
DISCID=ae08d80e
DTITLE=SLIM DUSTY - I Haven't Changed A Bit
DYEAR=1996
DGENRE=Country
TTITLE0=Australia Is His Name(2.28)~
TTITLE1=Coming Down The Barkly(2.39)~
TTITLE2=Callaghan's Hotel(2.49)~
TTITLE3=The Pub Rock(2.35)~
TTITLE4=Drowning My Blues(2.31)~
TTITLE5=Life Is Like A River(2.34)~
TTITLE6=Don't Fool Around Antmore(3.12)~
TTITLE7=The Ballard Of Port Macquarie(3.12)~
TTITLE8=Aussie Dog House Blues(2.04)~
TTITLE9=The Melbourne Cup(2.34)~
TTITLE10=I Haven't Changed A Bit(3.03)~
TTITLE11=This Country Of Mine(2.34)~
TTITLE12=Goldrush Country(2.40)~
TTITLE13=Never Mind(2.43)~
EXTD=YEAR: 1996 ID3G: 2
EXTT0=
EXTT1=
EXTT2=
EXTT3=
EXTT4=
EXTT5=
EXTT6=
EXTT7=
EXTT8=
EXTT9=
EXTT10=
EXTT11=
EXTT12=
EXTT13=
PLAYORDER=
